<svg xmlns="http://www.w3.org/2000/svg" xmlns:xlink="http://www.w3.org/1999/xlink" version="1.1" width="256" height="256" viewBox="0 0 256 256" xml:space="preserve">

<defs>
</defs>
<g style="stroke: none; stroke-width: 0; stroke-dasharray: none; stroke-linecap: butt; stroke-linejoin: miter; stroke-miterlimit: 10; fill: none; fill-rule: nonzero; opacity: 1;" transform="translate(1.4065934065934016 1.4065934065934016) scale(2.81 2.81)" >
	<path d="M 89.599 52.282 l -5.061 -11.49 c 0.879 -13.486 -4.709 -24.634 -15.358 -30.612 c -10.906 -6.124 -24.893 -5.497 -34.802 1.557 c -1.237 0.88 -2.411 1.862 -3.492 2.92 c -0.745 0.73 -1.449 1.514 -2.115 2.324 H 10.394 c -0.469 -2.416 -2.596 -4.248 -5.148 -4.248 c -2.894 0 -5.248 2.355 -5.248 5.248 c 0 2.894 2.355 5.249 5.248 5.249 c 2.552 0 4.679 -1.832 5.148 -4.249 h 16.874 c -2.289 3.314 -3.918 7.107 -4.881 11.332 H 10.394 c -0.469 -2.417 -2.596 -4.249 -5.148 -4.249 c -2.894 0 -5.248 2.355 -5.248 5.249 c 0 2.894 2.355 5.248 5.248 5.248 c 2.552 0 4.679 -1.832 5.148 -4.248 H 21.99 c -0.239 1.38 -0.432 2.789 -0.536 4.254 c -0.02 0.277 0.077 0.549 0.266 0.752 c 0.189 0.203 0.455 0.318 0.732 0.318 c 0.823 0 1.616 0.015 2.397 0.035 c 0.539 3.659 0.965 7.354 1.27 11.036 H 10.394 c -0.469 -2.417 -2.596 -4.249 -5.148 -4.249 c -2.894 0 -5.248 2.354 -5.248 5.249 c 0 2.894 2.355 5.248 5.248 5.248 c 2.552 0 4.679 -1.832 5.148 -4.248 h 15.874 c 0.817 11.461 0.495 22.698 -0.997 32.15 c -0.045 0.289 0.038 0.584 0.228 0.806 c 0.19 0.223 0.468 0.351 0.76 0.351 h 38.245 c 0.301 0 0.585 -0.135 0.774 -0.368 c 0.19 -0.232 0.266 -0.538 0.205 -0.832 c -0.405 -1.982 -0.642 -4.032 -0.725 -6.108 c 2.792 0.738 6.163 1.221 10.248 1.381 c 0.06 0.003 0.118 0.004 0.177 0.004 c 2.354 0 4.257 -1.85 4.368 -4.284 c 0.058 -1.249 0.629 -2.415 1.746 -3.565 c 0.787 -0.809 0.039 -1.663 -1.201 -3.079 c -0.01 -0.012 -0.021 -0.022 -0.03 -0.034 c 0.04 0.009 0.079 0.017 0.116 0.024 c 1.404 0.303 2.993 0.641 3.402 -0.688 l 0.097 -0.314 c 0.723 -2.35 0.52 -4.914 -0.549 -7.12 l 2.427 -0.143 c 1.54 -0.09 2.941 -0.93 3.746 -2.246 C 90.111 55.324 90.221 53.695 89.599 52.282 z M 5.246 34.56 c -1.791 0 -3.248 -1.457 -3.248 -3.248 s 1.457 -3.249 3.248 -3.249 s 3.249 1.458 3.249 3.249 S 7.037 34.56 5.246 34.56 z M 5.246 52.955 c -1.791 0 -3.248 -1.457 -3.248 -3.248 s 1.457 -3.249 3.248 -3.249 s 3.249 1.458 3.249 3.249 S 7.037 52.955 5.246 52.955 z M 5.246 21.228 c -1.791 0 -3.248 -1.458 -3.248 -3.249 s 1.457 -3.248 3.248 -3.248 s 3.249 1.457 3.249 3.248 S 7.037 21.228 5.246 21.228 z M 26.889 37.756 c 0.154 0.008 0.315 0.013 0.467 0.022 c 0.246 0.015 0.491 0.03 0.733 0.047 c 0.658 0.046 1.304 0.098 1.929 0.162 c 0.169 0.017 0.33 0.038 0.497 0.057 c 0.531 0.059 1.049 0.124 1.555 0.196 c 0.172 0.024 0.347 0.048 0.517 0.074 c 0.605 0.093 1.193 0.195 1.762 0.308 c 0.136 0.027 0.267 0.056 0.4 0.083 c 0.526 0.11 1.039 0.227 1.534 0.354 c 0.074 0.019 0.152 0.036 0.225 0.055 c 0.422 0.111 0.82 0.236 1.22 0.36 c -0.059 0.037 -0.111 0.083 -0.169 0.121 c -0.289 0.188 -0.568 0.389 -0.839 0.6 c -0.087 0.068 -0.18 0.128 -0.265 0.198 c -0.347 0.286 -0.674 0.594 -0.987 0.916 c -0.086 0.089 -0.165 0.182 -0.248 0.273 c -0.241 0.264 -0.471 0.537 -0.688 0.821 c -0.07 0.092 -0.14 0.183 -0.207 0.277 c -0.252 0.35 -0.488 0.711 -0.702 1.088 c -0.014 0.024 -0.03 0.047 -0.043 0.071 c -0.24 0.429 -0.454 0.874 -0.642 1.333 c -0.011 0.027 -0.019 0.055 -0.03 0.082 c -0.161 0.403 -0.298 0.818 -0.415 1.241 c -0.03 0.107 -0.056 0.214 -0.083 0.322 c -0.089 0.358 -0.16 0.721 -0.215 1.09 c -0.018 0.121 -0.041 0.24 -0.055 0.362 c -0.017 0.145 -0.031 0.291 -0.043 0.437 h -3.971 C 27.824 45.054 27.415 41.387 26.889 37.756 z M 41.868 39.911 c 0.104 -0.024 0.208 -0.049 0.313 -0.07 c 0.219 -0.043 0.443 -0.074 0.667 -0.102 c 0.095 -0.012 0.189 -0.028 0.284 -0.037 c 0.318 -0.031 0.64 -0.049 0.967 -0.049 c 5.544 0 10.055 4.51 10.055 10.055 c 0 0.355 -0.02 0.708 -0.057 1.057 c -0.006 0.057 -0.019 0.111 -0.026 0.168 c -0.036 0.292 -0.079 0.583 -0.141 0.869 c -0.014 0.066 -0.035 0.13 -0.05 0.196 c -0.064 0.271 -0.134 0.541 -0.22 0.806 c -0.027 0.082 -0.06 0.16 -0.088 0.241 c -0.085 0.24 -0.174 0.479 -0.277 0.711 c -0.045 0.102 -0.096 0.199 -0.144 0.299 c -0.098 0.203 -0.198 0.404 -0.31 0.6 c -0.066 0.117 -0.138 0.23 -0.209 0.344 c -0.105 0.169 -0.213 0.336 -0.328 0.499 c -0.089 0.125 -0.181 0.247 -0.275 0.368 c -0.111 0.143 -0.225 0.283 -0.344 0.42 c -0.108 0.124 -0.218 0.246 -0.331 0.365 c -0.12 0.126 -0.245 0.247 -0.372 0.367 c -0.128 0.12 -0.256 0.241 -0.39 0.354 c -0.09 0.076 -0.182 0.148 -0.274 0.221 c -0.154 0.122 -0.311 0.24 -0.472 0.353 c -0.101 0.07 -0.203 0.138 -0.306 0.204 c -0.158 0.102 -0.318 0.2 -0.482 0.293 c -0.116 0.066 -0.232 0.129 -0.35 0.19 c -0.156 0.081 -0.316 0.157 -0.477 0.23 c -0.131 0.059 -0.262 0.117 -0.395 0.17 c -0.156 0.063 -0.315 0.119 -0.475 0.174 c -0.141 0.048 -0.282 0.097 -0.425 0.139 c -0.163 0.048 -0.329 0.088 -0.494 0.127 c -0.143 0.034 -0.285 0.071 -0.429 0.099 c -0.189 0.037 -0.381 0.062 -0.574 0.088 c -0.124 0.017 -0.246 0.039 -0.37 0.051 c -0.319 0.031 -0.642 0.049 -0.97 0.049 c -5.207 0 -9.5 -3.978 -10.004 -9.054 h 4.857 c 0.469 2.416 2.596 4.248 5.147 4.248 c 2.894 0 5.249 -2.355 5.249 -5.248 c 0 -2.895 -2.355 -5.249 -5.249 -5.249 c -2.551 0 -4.678 1.832 -5.147 4.249 H 34.1 c 0.008 -0.08 0.018 -0.159 0.028 -0.239 c 0.023 -0.19 0.052 -0.378 0.086 -0.564 c 0.024 -0.128 0.047 -0.256 0.076 -0.382 c 0.036 -0.163 0.08 -0.323 0.124 -0.483 c 0.063 -0.226 0.133 -0.45 0.211 -0.67 c 0.053 -0.15 0.104 -0.3 0.164 -0.447 c 0.062 -0.151 0.132 -0.299 0.201 -0.447 c 0.053 -0.115 0.107 -0.229 0.164 -0.341 c 0.073 -0.142 0.149 -0.282 0.228 -0.42 c 0.069 -0.12 0.142 -0.239 0.216 -0.356 c 0.077 -0.122 0.152 -0.245 0.234 -0.363 c 0.155 -0.223 0.316 -0.442 0.488 -0.652 c 0.045 -0.055 0.094 -0.105 0.14 -0.159 c 0.149 -0.175 0.303 -0.346 0.464 -0.51 c 0.061 -0.062 0.124 -0.122 0.186 -0.182 c 0.162 -0.157 0.329 -0.31 0.501 -0.456 c 0.054 -0.046 0.108 -0.093 0.164 -0.138 c 0.22 -0.178 0.446 -0.35 0.68 -0.509 c 0.01 -0.007 0.02 -0.015 0.03 -0.022 c 0.265 -0.179 0.539 -0.346 0.822 -0.5 c 0.001 -0.001 0.003 -0.001 0.005 -0.002 c 0.261 -0.142 0.53 -0.269 0.804 -0.388 c 0.061 -0.026 0.123 -0.051 0.184 -0.076 c 0.211 -0.086 0.426 -0.164 0.644 -0.236 c 0.102 -0.034 0.203 -0.067 0.306 -0.097 C 41.454 40.009 41.66 39.958 41.868 39.911 z M 40.85 49.707 c 0 -1.791 1.457 -3.249 3.248 -3.249 c 1.791 0 3.249 1.458 3.249 3.249 s -1.458 3.248 -3.249 3.248 C 42.307 52.955 40.85 51.498 40.85 49.707 z M 62.73 76.084 c 0.046 2.007 0.236 3.993 0.569 5.929 H 27.423 c 1.358 -9.308 1.632 -20.204 0.851 -31.306 h 3.821 c 0.511 6.18 5.695 11.054 12.004 11.054 c 0.366 0 0.73 -0.022 1.091 -0.055 c 0.11 -0.01 0.218 -0.023 0.326 -0.036 c 0.269 -0.032 0.535 -0.073 0.8 -0.122 c 0.098 -0.018 0.197 -0.033 0.293 -0.054 c 0.337 -0.072 0.67 -0.157 0.998 -0.257 c 0.09 -0.027 0.177 -0.06 0.266 -0.09 c 0.253 -0.084 0.503 -0.175 0.75 -0.275 c 0.1 -0.041 0.2 -0.082 0.299 -0.126 c 0.278 -0.122 0.552 -0.253 0.821 -0.396 c 0.039 -0.021 0.08 -0.039 0.119 -0.06 c 0.274 -0.15 0.544 -0.308 0.807 -0.479 c 0.947 6.366 2.613 12.993 12.023 16.258 C 62.706 76.074 62.717 76.08 62.73 76.084 z M 87.599 55.597 c -0.47 0.769 -1.256 1.24 -2.156 1.293 l -2.95 0.173 c -0.573 0.033 -1.081 0.355 -1.358 0.858 c -0.276 0.504 -0.274 1.105 0.005 1.606 c 0.993 1.789 1.235 3.929 0.673 5.893 c -0.345 -0.039 -0.862 -0.149 -1.209 -0.224 c -1.423 -0.304 -2.652 -0.567 -3.303 0.307 c -0.605 0.811 0.03 1.534 1.293 2.977 c 0.237 0.271 0.551 0.628 0.779 0.91 c -1.136 1.345 -1.747 2.796 -1.817 4.323 c -0.063 1.383 -1.171 2.405 -2.469 2.374 c -4.856 -0.19 -8.612 -0.847 -11.542 -1.851 c -0.15 -0.051 -0.294 -0.104 -0.439 -0.156 c -3.148 -1.149 -5.299 -2.716 -6.799 -4.549 c -0.045 -0.056 -0.09 -0.111 -0.133 -0.167 c -0.124 -0.156 -0.244 -0.314 -0.358 -0.474 c -1.98 -2.828 -2.732 -6.382 -3.328 -10.528 c 0.031 -0.03 0.057 -0.064 0.088 -0.094 c 0.106 -0.105 0.203 -0.218 0.305 -0.327 c 0.166 -0.177 0.335 -0.352 0.49 -0.538 c 0.109 -0.131 0.206 -0.271 0.309 -0.406 c 0.133 -0.174 0.271 -0.345 0.393 -0.526 c 0.153 -0.224 0.289 -0.46 0.426 -0.695 c 0.059 -0.101 0.126 -0.196 0.181 -0.298 c 0.939 -1.715 1.475 -3.681 1.475 -5.77 c 0 -6.647 -5.407 -12.055 -12.055 -12.055 c -0.377 0 -0.751 0.022 -1.123 0.057 c -0.11 0.01 -0.217 0.026 -0.326 0.039 c -0.267 0.032 -0.532 0.072 -0.795 0.122 c -0.113 0.021 -0.225 0.043 -0.336 0.068 c -0.275 0.06 -0.548 0.131 -0.819 0.211 c -0.081 0.024 -0.164 0.044 -0.244 0.07 c -0.042 0.013 -0.086 0.023 -0.128 0.037 c -0.159 -0.063 -0.332 -0.117 -0.494 -0.177 c -0.302 -0.113 -0.605 -0.225 -0.92 -0.33 c -0.23 -0.077 -0.469 -0.148 -0.706 -0.221 c -0.325 -0.099 -0.654 -0.197 -0.991 -0.288 c -0.247 -0.067 -0.5 -0.13 -0.753 -0.192 c -0.345 -0.085 -0.696 -0.167 -1.055 -0.244 c -0.268 -0.058 -0.539 -0.113 -0.815 -0.167 c -0.359 -0.07 -0.726 -0.135 -1.099 -0.197 c -0.297 -0.05 -0.595 -0.098 -0.9 -0.143 c -0.364 -0.053 -0.737 -0.102 -1.113 -0.149 c -0.334 -0.042 -0.668 -0.084 -1.012 -0.121 c -0.361 -0.038 -0.734 -0.07 -1.105 -0.103 c -0.375 -0.033 -0.748 -0.068 -1.134 -0.095 c -0.371 -0.026 -0.756 -0.045 -1.137 -0.065 c -0.399 -0.022 -0.793 -0.046 -1.204 -0.062 c -0.045 -0.002 -0.087 -0.005 -0.132 -0.007 c -0.006 0 -0.011 0.003 -0.017 0.003 c -0.719 -0.026 -1.447 -0.048 -2.202 -0.057 c 0.11 -1.142 0.28 -2.245 0.479 -3.33 h 36.329 l 9.407 5.668 c -0.439 0.767 -0.71 1.642 -0.71 2.587 c 0 2.894 2.355 5.248 5.248 5.248 c 2.895 0 5.249 -2.355 5.249 -5.248 c 0 -2.894 -2.355 -5.249 -5.249 -5.249 c -1.214 0 -2.319 0.431 -3.21 1.127 l -9.94 -5.99 c -0.156 -0.094 -0.335 -0.144 -0.517 -0.144 H 24.435 c 1.037 -4.289 2.811 -8.082 5.305 -11.332 h 22.75 c 0.469 2.417 2.596 4.249 5.148 4.249 c 2.894 0 5.248 -2.355 5.248 -5.249 c 0 -2.894 -2.355 -5.248 -5.248 -5.248 c -2.552 0 -4.679 1.832 -5.148 4.248 H 31.427 c 0.282 -0.303 0.564 -0.606 0.858 -0.894 c 1.006 -0.985 2.1 -1.9 3.252 -2.719 c 9.293 -6.614 22.42 -7.193 32.664 -1.442 c 10.011 5.62 15.232 16.181 14.325 28.975 c -0.012 0.162 0.017 0.325 0.082 0.474 l 5.16 11.716 C 88.132 53.913 88.07 54.828 87.599 55.597 z M 74.29 37.319 c 1.792 0 3.249 1.458 3.249 3.249 s -1.457 3.248 -3.249 3.248 c -1.791 0 -3.248 -1.457 -3.248 -3.248 S 72.499 37.319 74.29 37.319 z M 54.389 17.979 c 0 -1.791 1.457 -3.248 3.249 -3.248 c 1.791 0 3.248 1.457 3.248 3.248 s -1.457 3.249 -3.248 3.249 C 55.846 21.228 54.389 19.77 54.389 17.979 z" style="stroke: none; stroke-width: 1; stroke-dasharray: none; stroke-linecap: butt; stroke-linejoin: miter; stroke-miterlimit: 10; fill: rgb(0,0,0); fill-rule: nonzero; opacity: 1;" transform=" matrix(1 0 0 1 0 0) " stroke-linecap="round" />
</g>
</svg>